<svg xmlns="http://www.w3.org/2000/svg" viewBox="0 0 720 540" role="img" aria-label="Handmade French petit fours placeholder">
  <rect width="720" height="540" fill="#fffaf4"/>
  <rect x="54" y="58" width="612" height="424" rx="18" fill="#ead8c6"/>
  <ellipse cx="360" cy="384" rx="244" ry="60" fill="#fffdf9"/>
  <g>
    <rect x="180" y="238" width="112" height="86" rx="18" fill="#d9a7a2"/>
    <rect x="304" y="204" width="112" height="118" rx="22" fill="#fff8ee"/>
    <rect x="428" y="238" width="112" height="86" rx="18" fill="#c7a681"/>
    <path d="M194 238 C208 198 260 198 278 238 Z" fill="#f2d8d3"/>
    <path d="M318 204 C330 160 390 160 402 204 Z" fill="#f0d9bd"/>
    <path d="M442 238 C456 198 508 198 526 238 Z" fill="#fff0d8"/>
  </g>
  <g fill="#dde2c4">
    <ellipse cx="240" cy="226" rx="15" ry="7" transform="rotate(-20 240 226)"/>
    <ellipse cx="360" cy="192" rx="15" ry="7" transform="rotate(18 360 192)"/>
    <ellipse cx="486" cy="226" rx="15" ry="7" transform="rotate(-34 486 226)"/>
  </g>
</svg>
